<?xml version="1.0" standalone="no"?>
<!DOCTYPE svg PUBLIC "-//W3C//DTD SVG 20010904//EN"
 "http://www.w3.org/TR/2001/REC-SVG-20010904/DTD/svg10.dtd">
<svg version="1.0" xmlns="http://www.w3.org/2000/svg"
 width="543.000000pt" height="543.000000pt" viewBox="0 0 543.000000 543.000000"
 preserveAspectRatio="xMidYMid meet">
<metadata>
Created by potrace 1.10, written by Peter Selinger 2001-2011
</metadata>
<g transform="translate(0.000000,543.000000) scale(0.100000,-0.100000)"
fill="#4790da" stroke="none">
<path d="M2580 5383 c-85 -6 -335 -35 -342 -39 -4 -2 -40 -11 -80 -18 -124
-24 -172 -36 -193 -45 -11 -5 -31 -12 -45 -14 -14 -3 -41 -11 -60 -18 -84 -31
-212 -80 -228 -88 -9 -5 -62 -30 -117 -56 -108 -52 -268 -144 -273 -157 -2 -4
-10 -8 -17 -8 -8 0 -20 -6 -27 -13 -7 -7 -38 -31 -68 -52 -30 -21 -57 -41 -60
-45 -3 -3 -32 -27 -65 -52 -33 -25 -77 -62 -98 -82 l-37 -37 0 -438 0 -439 26
-6 c14 -4 120 -6 234 -5 115 0 213 -2 219 -6 17 -10 14 -180 -2 -194 -9 -7
-94 -12 -243 -13 l-229 -3 -2 -1385 c-2 -1078 0 -1388 10 -1401 30 -39 250
-213 335 -264 9 -6 43 -27 74 -48 72 -47 304 -167 322 -167 7 0 19 -7 26 -15
7 -8 22 -15 34 -15 12 0 26 -4 32 -9 9 -10 76 -36 129 -51 17 -4 44 -13 60
-18 17 -6 55 -18 85 -26 30 -8 79 -22 109 -30 29 -9 66 -16 81 -16 16 0 40 -4
54 -10 73 -27 457 -53 613 -40 229 18 322 29 342 39 11 6 34 11 52 11 18 0 57
7 88 16 31 8 81 22 111 31 136 38 257 80 274 95 6 4 16 8 24 8 21 0 265 120
357 176 310 188 611 464 789 723 21 31 41 58 45 61 25 18 189 315 249 450 8
19 21 47 29 62 7 14 13 33 13 41 0 9 6 28 14 44 13 27 25 63 59 183 9 30 23
79 31 109 9 29 16 66 16 81 0 16 5 41 11 57 10 28 20 112 39 333 11 131 3 358
-14 392 -9 19 -21 23 -62 25 -29 1 -57 -3 -66 -10 -8 -6 -25 -41 -38 -77 -12
-36 -29 -79 -36 -97 -8 -17 -14 -40 -14 -50 0 -10 -4 -23 -8 -29 -5 -5 -19
-40 -31 -79 -12 -38 -26 -79 -31 -90 -5 -11 -19 -49 -31 -85 -11 -36 -27 -79
-35 -97 -8 -17 -14 -40 -14 -51 0 -12 -4 -23 -9 -26 -5 -3 -12 -18 -15 -33 -6
-25 -55 -166 -76 -218 -4 -11 -18 -49 -30 -85 -12 -36 -29 -79 -36 -97 -8 -17
-14 -40 -14 -52 0 -33 -31 -41 -162 -41 -149 0 -164 4 -171 38 -7 35 -64 202
-77 224 -6 10 -10 26 -10 35 0 10 -7 31 -15 47 -8 15 -15 36 -15 45 0 9 -7 29
-15 45 -8 15 -15 35 -15 43 0 8 -6 29 -14 46 -8 18 -25 64 -37 102 -12 39 -26
74 -31 80 -4 5 -8 18 -8 28 0 10 -6 33 -14 50 -8 18 -24 66 -37 107 -12 41
-26 79 -31 84 -4 6 -8 19 -8 29 0 10 -6 33 -14 50 -8 18 -16 41 -19 52 -8 29
-31 88 -40 102 -5 8 -30 12 -71 11 -90 -3 -96 4 -96 112 0 82 1 88 23 94 37
10 317 7 337 -4 11 -6 24 -29 30 -53 6 -23 15 -51 19 -62 5 -11 18 -54 30 -95
13 -41 27 -83 32 -92 5 -10 9 -25 9 -34 0 -9 6 -30 13 -47 12 -29 51 -148 94
-292 9 -27 21 -68 28 -90 12 -36 27 -86 72 -240 8 -27 19 -58 24 -67 5 -10 9
-30 9 -45 0 -16 4 -34 9 -42 7 -11 13 -6 25 23 8 20 18 53 22 74 4 20 10 42
15 47 4 6 12 29 18 50 5 22 14 54 20 70 5 17 17 57 26 90 9 33 23 74 31 92 8
17 14 35 14 40 -1 11 90 290 107 330 7 17 13 40 13 51 0 12 5 24 10 27 6 3 10
20 10 36 0 30 -1 30 -50 28 -27 -2 -53 1 -57 4 -13 14 -16 176 -3 192 10 13
51 15 248 15 l235 0 -6 51 c-6 49 -9 63 -40 164 -8 28 -18 65 -22 82 -4 18
-11 35 -16 38 -5 4 -9 16 -9 28 0 12 -7 35 -15 51 -8 15 -15 33 -15 38 0 6 -7
26 -16 46 -68 159 -114 251 -186 369 -37 61 -68 116 -68 122 0 5 -6 14 -13 18
-7 4 -23 24 -35 43 -11 19 -32 46 -44 60 -13 14 -46 54 -73 90 -73 96 -265
285 -385 379 -268 212 -568 374 -850 461 -41 12 -84 26 -95 31 -11 5 -40 13
-65 18 -25 5 -65 13 -90 19 -143 34 -195 41 -435 62 -108 9 -187 10 -275 3z
m20 -1632 c110 -32 170 -65 240 -132 99 -96 143 -214 144 -394 1 -190 -53
-346 -157 -447 -40 -39 -130 -88 -162 -88 -25 0 -25 -17 -1 -67 13 -26 37 -77
54 -113 16 -36 43 -94 60 -130 17 -36 42 -92 57 -125 15 -33 37 -82 50 -110
13 -27 32 -71 43 -96 11 -25 28 -51 36 -58 9 -8 55 -17 102 -22 48 -4 91 -12
96 -17 5 -5 8 -42 6 -82 l-3 -73 -65 -19 c-43 -12 -98 -18 -162 -18 -94 0 -98
1 -139 33 -43 32 -66 71 -139 232 -17 39 -37 84 -45 100 -41 89 -75 167 -75
170 0 2 -18 43 -41 92 -22 48 -50 108 -60 133 -11 25 -30 64 -42 88 l-22 42
-196 0 c-195 0 -197 0 -203 -22 -8 -33 -7 -611 2 -624 4 -7 47 -12 111 -12 73
-1 107 -5 113 -14 4 -7 8 -52 8 -99 0 -81 -1 -87 -22 -93 -35 -9 -641 -7 -656
2 -9 6 -12 34 -10 103 l3 94 85 5 85 5 0 780 0 780 -85 5 -85 5 -3 103 -3 102
518 -3 c392 -2 529 -6 563 -16z m1068 -73 c5 -8 9 -66 8 -138 l-1 -125 -45 -5
c-25 -3 -91 -3 -147 -2 l-103 4 0 132 c0 73 3 136 7 139 13 13 270 8 281 -5z
m9 -1074 c1 -324 4 -597 7 -606 3 -16 17 -18 93 -18 56 0 93 -4 101 -12 13
-13 16 -117 4 -133 -22 -30 -122 -61 -236 -72 -67 -6 -155 18 -185 52 -45 49
-46 63 -51 635 l-5 545 -56 0 c-82 0 -89 10 -89 116 l0 89 188 2 c103 2 196 0
207 -3 20 -6 20 -16 22 -595z"/>
<path d="M1974 3547 c-3 -8 -4 -166 -2 -353 l3 -339 270 0 c167 1 284 5 308
12 58 17 103 57 133 120 25 53 28 70 32 196 3 108 1 148 -12 186 -32 98 -77
145 -169 175 -65 22 -555 24 -563 3z"/>
<path d="M598 4368 c-19 -24 -50 -65 -69 -93 -19 -27 -37 -52 -40 -55 -5 -4
-28 -41 -113 -183 -44 -73 -126 -249 -121 -257 8 -12 365 -13 384 -1 10 7 13
69 13 317 0 189 -3 309 -9 311 -6 2 -26 -16 -45 -39z"/>
<path d="M164 3552 c-6 -4 -15 -23 -19 -42 -4 -19 -14 -57 -22 -85 -8 -27 -20
-65 -25 -84 -6 -19 -14 -60 -19 -90 -4 -31 -12 -78 -18 -106 -5 -27 -17 -126
-26 -220 -15 -146 -16 -192 -6 -325 20 -266 27 -314 62 -455 6 -22 14 -60 19
-85 4 -25 12 -56 18 -70 5 -14 20 -59 32 -100 13 -41 27 -79 31 -84 5 -6 9
-16 9 -24 0 -12 11 -39 55 -137 27 -61 109 -221 132 -257 12 -21 23 -40 23
-43 0 -10 156 -233 193 -275 20 -24 40 -40 45 -34 4 5 6 575 4 1267 l-2 1257
-238 0 c-130 0 -242 -4 -248 -8z"/>
</g>
</svg>
